<svg xmlns="http://www.w3.org/2000/svg" viewBox="0 0 900 320" role="img" aria-labelledby="title desc">
  <title id="title">SmallTV Ultra display modes</title>
  <desc id="desc">Stock ticker, AI Usage and GitHub GH//STAT previews.</desc>
  <rect width="900" height="320" rx="28" fill="#0b0f14"/>
  <g font-family="ui-monospace, SFMono-Regular, Menlo, monospace">
    <g transform="translate(35 35)">
      <rect width="240" height="240" rx="12" fill="#020606" stroke="#26343d" stroke-width="3"/>
      <text x="18" y="35" fill="#eafff8" font-size="22" font-weight="700">AAPL</text>
      <text x="222" y="34" fill="#55e3ae" font-size="11" text-anchor="end">MARKET // 1D</text>
      <path d="M18 52H222" stroke="#18332b"/>
      <text x="18" y="91" fill="#fff" font-size="36" font-weight="700">231.42</text>
      <text x="220" y="90" fill="#4ee69c" font-size="16" text-anchor="end">▲ 1.84%</text>
      <path d="M18 195L44 181L70 188L96 148L122 163L148 124L174 139L200 103L222 112" fill="none" stroke="#51e4aa" stroke-width="5"/>
      <text x="120" y="265" fill="#8b96a5" font-size="14" text-anchor="middle">Ticker</text>
    </g>
    <g transform="translate(330 35)">
      <rect width="240" height="240" rx="12" fill="#030508" stroke="#26343d" stroke-width="3"/>
      <text x="18" y="35" fill="#eafff8" font-size="20" font-weight="700">AI//USAGE</text>
      <text x="222" y="34" fill="#55e3ae" font-size="11" text-anchor="end">LOCAL</text>
      <rect x="16" y="57" width="208" height="71" rx="10" fill="#11171c"/>
      <text x="29" y="82" fill="#8fa2ad" font-size="12">ANTIGRAVITY</text>
      <text x="207" y="104" fill="#fff" font-size="30" font-weight="700" text-anchor="end">34%</text>
      <rect x="29" y="111" width="178" height="7" rx="4" fill="#273038"/><rect x="29" y="111" width="61" height="7" rx="4" fill="#56dca9"/>
      <rect x="16" y="139" width="208" height="71" rx="10" fill="#11171c"/>
      <text x="29" y="164" fill="#8fa2ad" font-size="12">CODEX</text>
      <text x="207" y="186" fill="#fff" font-size="30" font-weight="700" text-anchor="end">57%</text>
      <rect x="29" y="193" width="178" height="7" rx="4" fill="#273038"/><rect x="29" y="193" width="101" height="7" rx="4" fill="#56dca9"/>
      <text x="120" y="265" fill="#8b96a5" font-size="14" text-anchor="middle">AI Usage</text>
    </g>
    <g transform="translate(625 35)">
      <rect width="240" height="240" rx="12" fill="#020606" stroke="#26343d" stroke-width="3"/>
      <text x="16" y="34" fill="#eafff8" font-size="21" font-weight="700">GH//STAT</text>
      <text x="222" y="33" fill="#ffbd43" font-size="11" text-anchor="end">● FOCUS</text>
      <g transform="translate(15 54)">
        <rect width="210" height="73" rx="9" fill="#091111" stroke="#39e7ff" stroke-width="3"/>
        <circle cx="28" cy="36" r="12" fill="none" stroke="#58a9ff" stroke-width="4" stroke-dasharray="55 18"/>
        <text x="51" y="29" fill="#fff" font-size="13" font-weight="700">ananas-it/web</text>
        <text x="51" y="49" fill="#91a49e" font-size="11">DEP · production</text>
        <text x="195" y="40" fill="#58a9ff" font-size="11" text-anchor="end">01:12</text>
      </g>
      <g transform="translate(15 137)">
        <rect width="210" height="73" rx="9" fill="#091111" stroke="#244139"/>
        <circle cx="28" cy="36" r="12" fill="none" stroke="#ffbd43" stroke-width="4" stroke-dasharray="44 29"/>
        <text x="51" y="29" fill="#fff" font-size="13" font-weight="700">ananas-it/mobile</text>
        <text x="51" y="49" fill="#91a49e" font-size="11">PR · checks</text>
        <text x="195" y="40" fill="#ffbd43" font-size="11" text-anchor="end">00:18</text>
      </g>
      <text x="120" y="265" fill="#8b96a5" font-size="14" text-anchor="middle">GitHub GH//STAT</text>
    </g>
  </g>
</svg>
